<svg width="48" height="47" viewBox="0 0 48 47" fill="none" xmlns="http://www.w3.org/2000/svg">
<circle cx="24.0214" cy="23.1947" r="23.1888" fill="#4B82EF"/>
<path fill-rule="evenodd" clip-rule="evenodd" d="M33.8597 13.3567C34.0833 13.5804 34.209 13.8837 34.209 14.2C34.209 14.5163 34.0833 14.8196 33.8597 15.0433L25.708 23.1949L33.8597 31.3466C34.0833 31.5702 34.209 31.8736 34.209 32.1898C34.209 32.5061 34.0833 32.8095 33.8597 33.0331C33.636 33.2568 33.3327 33.3824 33.0164 33.3824C32.7001 33.3824 32.3968 33.2568 32.1731 33.0331L24.0215 24.8815L15.8698 33.0331C15.6462 33.2568 15.3429 33.3824 15.0266 33.3824C14.7103 33.3824 14.4069 33.2568 14.1833 33.0331C13.9596 32.8095 13.834 32.5061 13.834 32.1898C13.834 31.8736 13.9596 31.5702 14.1833 31.3466L22.3349 23.1949L14.1833 15.0433C13.9596 14.8196 13.834 14.5163 13.834 14.2C13.834 13.8837 13.9596 13.5804 14.1833 13.3567C14.4069 13.1331 14.7103 13.0074 15.0266 13.0074C15.3429 13.0074 15.6462 13.1331 15.8698 13.3567L24.0215 21.5084L32.1731 13.3567C32.3968 13.1331 32.7001 13.0074 33.0164 13.0074C33.3327 13.0074 33.636 13.1331 33.8597 13.3567Z" fill="white"/>
</svg>
